<?xml version="1.0" encoding="utf-8"?>
<!-- Generator: Adobe Illustrator 22.0.1, SVG Export Plug-In . SVG Version: 6.00 Build 0)  -->
<svg version="1.1" id="Layer_1" xmlns="http://www.w3.org/2000/svg" xmlns:xlink="http://www.w3.org/1999/xlink" x="0px" y="0px"
	 viewBox="0 0 512 512" style="enable-background:new 0 0 512 512;" xml:space="preserve">
<style type="text/css">
	.st0{clip-path:url(#SVGID_2_);fill:#2D4E9D;}
	.st1{fill:#F1C930;}
</style>
<g>
	<defs>
		<path id="SVGID_1_" d="M0.4,256c0,141.4,114.6,256,256,256c141.4,0,256-114.6,256-256c0-141.4-114.6-256-256-256
			C115,0,0.4,114.6,0.4,256"/>
	</defs>
	<use xlink:href="#SVGID_1_"  style="overflow:visible;fill:#2D4E9D;"/>
	<clipPath id="SVGID_2_">
		<use xlink:href="#SVGID_1_"  style="overflow:visible;"/>
	</clipPath>
	<rect x="0.4" y="0" class="st0" width="512" height="512"/>
</g>
<path class="st1" d="M44.3,255.9c0-117.2,95-212.2,212.2-212.2c117.2,0,212.3,95,212.3,212.2c0,117.2-95,212.2-212.3,212.2
	c-23.1,0-45.4-3.7-66.3-10.5c15.1-87.6,70.4-159,143.5-189.3c8.7,10,21.5,16.3,35.7,16.3c26.1,0,47.1-21.1,47.1-47.1
	c0-26.1-21.1-47.2-47.1-47.2c-26,0-47.1,21.1-47.2,47.1c-93.3,28.1-168.8,93.1-207.2,176.8c-12.2-10.9-23-23.1-32.5-36.5
	c2.2-81.5,42.5-152.7,102.9-194.7c8.6,9.8,21.2,15.9,35.3,15.9c26,0,47.2-21.1,47.2-47.2c0-26.1-21.1-47.2-47.2-47.2
	c-26.1,0-47.2,21.1-47.2,47.2c0,1.4,0.1,2.8,0.2,4.1c-56.2,19.7-102.3,58.7-129.3,108.5C44.3,261.4,44.3,258.7,44.3,255.9"/>
</svg>
