<?xml version="1.0" encoding="utf-8"?>
<!-- Generator: Adobe Illustrator 22.0.1, SVG Export Plug-In . SVG Version: 6.00 Build 0)  -->
<svg version="1.1" id="Слой_1" xmlns="http://www.w3.org/2000/svg" xmlns:xlink="http://www.w3.org/1999/xlink" x="0px" y="0px"
	 viewBox="0 0 50 50" style="enable-background:new 0 0 50 50;" xml:space="preserve">
<style type="text/css">
	.st0{fill:#0897F5;}
	.st1{fill:#FFFFFF;}
</style>
<circle class="st0" cx="25" cy="25" r="25"/>
<g>
	<g>
		<path class="st1" d="M31.7,28.1c-0.9-0.9-1.9-0.9-2.8,0c-0.7,0.7-1.3,1.3-2,2c-0.2,0.2-0.3,0.2-0.5,0.1c-0.4-0.2-0.9-0.4-1.3-0.7
			c-1.9-1.2-3.5-2.7-4.9-4.5c-0.7-0.9-1.3-1.8-1.8-2.8c-0.1-0.2-0.1-0.4,0.1-0.5c0.7-0.6,1.3-1.3,1.9-1.9c0.9-0.9,0.9-2,0-2.9
			c-0.5-0.5-1-1-1.5-1.5c-0.5-0.5-1.1-1.1-1.6-1.6c-0.9-0.8-1.9-0.8-2.8,0c-0.7,0.7-1.3,1.3-2,2c-0.6,0.6-0.9,1.3-1,2.2
			c-0.1,1.4,0.2,2.7,0.7,3.9c1,2.6,2.5,4.9,4.2,7.1c2.4,2.9,5.3,5.2,8.7,6.8c1.5,0.7,3.1,1.3,4.8,1.4c1.2,0.1,2.2-0.2,3-1.2
			c0.6-0.6,1.2-1.2,1.8-1.8c0.9-0.9,0.9-2,0-2.9C33.8,30.2,32.8,29.2,31.7,28.1z"/>
		<path class="st1" d="M30.7,23.7l2-0.4c-0.3-1.9-1.2-3.6-2.5-4.9c-1.4-1.4-3.2-2.3-5.2-2.6l-0.3,2.1c1.5,0.2,2.9,0.9,4,2
			C29.7,21,30.4,22.3,30.7,23.7z"/>
		<path class="st1" d="M33.8,14.9c-2.4-2.4-5.3-3.8-8.6-4.3L25,12.6c2.8,0.4,5.4,1.7,7.4,3.7c1.9,1.9,3.2,4.4,3.6,7l2-0.4
			C37.5,19.9,36.1,17.1,33.8,14.9z"/>
	</g>
</g>
</svg>
