<?xml version="1.0" encoding="utf-8"?>
<!-- Generator: Adobe Illustrator 22.0.1, SVG Export Plug-In . SVG Version: 6.00 Build 0)  -->
<svg version="1.1" id="Слой_1" xmlns="http://www.w3.org/2000/svg" xmlns:xlink="http://www.w3.org/1999/xlink" x="0px" y="0px"
	 viewBox="0 0 50 50" style="enable-background:new 0 0 50 50;" xml:space="preserve">
<style type="text/css">
	.st0{fill:url(#SVGID_1_);}
	.st1{fill:#FFFFFF;}
	.st2{fill:#D2E5F1;}
	.st3{fill:#B5CFE4;}
</style>
<linearGradient id="SVGID_1_" gradientUnits="userSpaceOnUse" x1="24.9873" y1="313" x2="24.9873" y2="263.1825" gradientTransform="matrix(1 0 0 -1 0 313)">
	<stop  offset="0" style="stop-color:#42BCE8"/>
	<stop  offset="1" style="stop-color:#23A7DC"/>
</linearGradient>
<circle class="st0" cx="25" cy="25" r="25"/>
<path class="st1" d="M35.9,14.3l-3.9,20c0,0-0.5,1.4-2.1,0.7l-9-7l-3.3-1.6l-5.5-1.9c0,0-0.8-0.3-0.9-1c-0.1-0.7,1-1,1-1l22-8.7
	C34.1,13.8,35.9,13,35.9,14.3z"/>
<path class="st2" d="M20.2,34.1c0,0-0.3,0-0.6-1.1c-0.3-1.1-2-6.6-2-6.6l13.3-8.5c0,0,0.8-0.5,0.7,0c0,0,0.1,0.1-0.3,0.5
	c-0.4,0.4-10.4,9.5-10.4,9.5"/>
<path class="st3" d="M24.4,30.7L20.8,34c0,0-0.3,0.2-0.6,0.1l0.7-6.1"/>
</svg>
