<?xml version="1.0" encoding="utf-8"?>
<!-- Generator: Adobe Illustrator 22.0.1, SVG Export Plug-In . SVG Version: 6.00 Build 0)  -->
<svg version="1.1" id="Слой_1" xmlns="http://www.w3.org/2000/svg" xmlns:xlink="http://www.w3.org/1999/xlink" x="0px" y="0px"
	 viewBox="0 0 50 50" style="enable-background:new 0 0 50 50;" xml:space="preserve">
<style type="text/css">
	.st0{fill:#6F3FAA;}
	.st1{fill:#FFFFFF;}
</style>
<circle class="st0" cx="25" cy="25" r="24.9"/>
<g>
	<path class="st1" d="M38.2,17.6L38.2,17.6c-0.7-2.7-3.7-5.6-6.4-6.2l0,0c-4.5-0.8-9-0.8-13.4,0l0,0c-2.8,0.6-5.7,3.5-6.4,6.2l0,0
		c-0.8,3.8-0.8,7.6,0,11.3l0,0c0.6,2.6,3.4,5.3,6.1,6.1v3c0,1.1,1.3,1.6,2.1,0.8l3-3.2c0.7,0,1.3,0.1,2,0.1c2.2,0,4.5-0.2,6.7-0.6
		l0,0c2.8-0.6,5.8-3.5,6.4-6.2l0,0C39,25.2,39,21.4,38.2,17.6z M35.8,28.4c-0.4,1.8-2.7,3.9-4.5,4.3c-2.4,0.4-4.8,0.6-7.1,0.6
		c0,0-0.1,0-0.1,0c-0.3,0.4-2.2,2.3-2.2,2.3L19.4,38c-0.2,0.2-0.5,0.1-0.5-0.2v-5c0-0.1-0.1-0.2-0.1-0.2l0,0
		c-1.8-0.4-4.1-2.6-4.5-4.3c-0.7-3.4-0.7-6.8,0-10.2c0.4-1.8,2.7-3.9,4.5-4.3c4.1-0.8,8.3-0.8,12.5,0c1.8,0.4,4.1,2.6,4.5,4.3
		C36.5,21.5,36.5,25,35.8,28.4z"/>
	<path class="st1" d="M28.9,30.7c-0.3-0.1-0.5-0.1-0.8-0.2c-2.5-1.1-4.9-2.4-6.8-4.5c-1.1-1.2-1.9-2.5-2.6-4
		c-0.3-0.7-0.6-1.4-0.9-2.1c-0.3-0.6,0.1-1.3,0.5-1.8c0.4-0.4,0.9-0.8,1.4-1.1c0.4-0.2,0.8-0.1,1.1,0.3c0.7,0.8,1.2,1.5,1.7,2.4
		c0.3,0.5,0.2,1.2-0.3,1.6c-0.1,0.1-0.3,0.2-0.4,0.3c-0.1,0.1-0.2,0.2-0.3,0.3c-0.1,0.2-0.1,0.5-0.1,0.7c0.7,1.8,1.8,3.2,3.6,4
		c0.3,0.1,0.6,0.3,0.9,0.2c0.6-0.1,0.7-0.7,1.1-1c0.4-0.3,0.9-0.3,1.3-0.1c0.4,0.3,0.8,0.5,1.2,0.8c0.4,0.3,0.8,0.6,1.2,0.9
		c0.4,0.3,0.5,0.7,0.3,1.1c-0.4,0.8-0.9,1.4-1.6,1.8C29.4,30.6,29.2,30.6,28.9,30.7C28.7,30.6,29.2,30.6,28.9,30.7z"/>
	<path class="st1" d="M25,16.2c3.3,0.1,6.1,2.3,6.7,5.6c0.1,0.6,0.1,1.1,0.2,1.7c0,0.2-0.1,0.5-0.4,0.5c-0.3,0-0.4-0.2-0.4-0.5
		c0-0.5-0.1-1-0.1-1.4c-0.4-2.5-2.3-4.5-4.8-5C25.8,17.1,25.4,17,25,17c-0.2,0-0.6,0-0.6-0.3c0-0.3,0.2-0.4,0.4-0.5
		C24.9,16.2,24.9,16.2,25,16.2C28.3,16.3,24.9,16.2,25,16.2z"/>
	<path class="st1" d="M30.1,22.8c0,0,0,0.1,0,0.2c-0.1,0.3-0.6,0.4-0.7,0c0-0.1,0-0.2,0-0.3c0-0.7-0.2-1.4-0.5-2
		c-0.4-0.6-0.9-1.2-1.6-1.5c-0.4-0.2-0.8-0.3-1.3-0.4c-0.2,0-0.4,0-0.6-0.1c-0.2,0-0.4-0.2-0.3-0.4c0-0.2,0.2-0.4,0.4-0.4
		c0.8,0,1.5,0.2,2.2,0.6c1.4,0.7,2.2,1.9,2.4,3.4c0,0.1,0,0.1,0,0.2C30.1,22.4,30.1,22.5,30.1,22.8C30.1,22.8,30.1,22.5,30.1,22.8z"
		/>
	<path class="st1" d="M28,22.7c-0.3,0-0.4-0.1-0.5-0.4c0-0.2,0-0.4-0.1-0.5c-0.1-0.3-0.3-0.7-0.6-0.9c-0.1-0.1-0.3-0.2-0.4-0.2
		c-0.2-0.1-0.4,0-0.6-0.1c-0.2-0.1-0.3-0.2-0.3-0.4c0-0.2,0.2-0.3,0.4-0.3c1.3,0.1,2.2,0.8,2.4,2.3c0,0.1,0,0.2,0,0.3
		C28.3,22.6,28.1,22.7,28,22.7C27.7,22.7,28.1,22.7,28,22.7z"/>
</g>
</svg>
