<?xml version="1.0" encoding="utf-8"?>
<!-- Generator: Adobe Illustrator 22.0.1, SVG Export Plug-In . SVG Version: 6.00 Build 0)  -->
<svg version="1.1" id="Layer_1" xmlns="http://www.w3.org/2000/svg" xmlns:xlink="http://www.w3.org/1999/xlink" x="0px" y="0px"
	 viewBox="0 0 512 512" style="enable-background:new 0 0 512 512;" xml:space="preserve">
<style type="text/css">
	.st0{fill:#F91600;}
</style>
<path class="st0" d="M366.5,26.1c-46.9,6.7-83.2,50.4-84.1,103.7c64.9,12,114,55.5,114,133.3c0,75.1-62.4,135.7-140.3,135.7
	c-77.5,0.2-140.3-67.9-140.3-156.2c0-121.7,108.1-222.6,244.7-219.4C328.5,9,293.2,1,256,1C115.3,1,1,115.1,1,256s114.3,255,255,255
	s255-114.1,255-255C511,154.8,452,67.3,366.5,26.1z"/>
</svg>
